<?xml version="1.0" encoding="utf-8"?>
<!-- Generator: Adobe Illustrator 25.1.0, SVG Export Plug-In . SVG Version: 6.00 Build 0)  -->
<svg version="1.1" id="Layer_1" xmlns="http://www.w3.org/2000/svg" xmlns:xlink="http://www.w3.org/1999/xlink" x="0px" y="0px"
	 viewBox="0 0 1000 1000" style="enable-background:new 0 0 1000 1000;" xml:space="preserve">
<style type="text/css">
	.st0{fill:#56B4F9;}
</style>
<g id="sYAaVk_1_">
	<g>
		<path class="st0" d="M64.12,397.1c0-3.95,0-7.89,0-11.84c28.73-57.11,57.62-114.15,86.06-171.41
			c4.94-9.95,11.82-15.85,22.58-18.18c12.36-2.67,24.48-6.4,36.84-9.05c7.46-1.6,10.18-5.43,9.86-12.93
			c-0.45-10.69-0.28-21.42,0-32.12c0.36-13.97,3.62-18.4,16.58-23.17c11.35-4.18,22.97-7.68,34.09-12.37
			c12.2-5.15,23.95-5.51,36.88-2.28c27.6,6.9,29.01,7.94,29.13,36.83c0.05,13.07,0.37,13.33,12.69,10.16
			c54.72-14.06,109.46-28.09,164.17-42.2c57.42-14.82,114.83-29.72,172.24-44.59c2.81,0,5.63,0,8.44,0
			c5.6,2.94,9.77,7.34,13.53,12.4c32.55,43.84,65.23,87.59,97.86,131.37c39.19,52.58,78.35,105.19,117.59,157.73
			c5.17,6.92,8.89,14.14,4.16,22.52c-4.83,8.56-12.86,9.8-21.95,8.65c-6.95-0.88-14.05-0.5-21.02-1.3
			c-5.75-0.66-7.57,1.59-7.46,7.02c0.2,9.29,0.03,18.59,0.02,27.89c-0.13,95.49-0.45,190.98-0.2,286.47
			c0.04,14.98-4.78,24.45-18.76,31.27c-32.08,15.64-63.43,32.81-95.1,49.31c-84.78,44.19-169.56,88.35-254.34,132.53
			c-2.81,0-5.63,0-8.44,0c-120.71-62.93-241.36-125.96-362.21-188.61c-11.71-6.07-16.71-13.86-16.64-27.23
			c0.43-80.01,0.21-160.03,0.21-240.05c0-18.03-0.34-36.07,0.15-54.09c0.23-8.27-2.87-10.91-10.8-10.73
			c-9.25,0.21-18.53-0.91-27.8-1.01C74.07,408,67.88,404.73,64.12,397.1z M875.56,359.77c-1.36-2.08-2.05-3.29-2.88-4.39
			c-59.72-80.15-119.51-160.25-179.09-240.51c-4.59-6.19-7.03-4.71-11.19,0.25c-39.67,47.2-79.54,94.23-119.34,141.32
			c-33.08,39.13-66.15,78.27-99.17,117.45c-1.55,1.84-4.53,3.63-3.38,6.27c1.17,2.68,4.51,1.55,6.9,1.65
			c11.23,0.48,22.47,0.79,33.71,1.17c12.99,0.44,19.08,6.44,19.46,19.26c0.11,3.66,0.05,7.33,0.05,10.99c0,151.03,0,302.07,0,453.1
			c0,2.82-0.07,5.64,0.03,8.45c0.3,8.25,1.76,9.27,8.9,5.56c38.44-19.97,76.8-40.1,115.26-60.03c4.63-2.4,6.55-5.65,6.34-10.75
			c-0.23-5.63-0.03-11.27-0.03-16.9c0-102-0.01-204.01,0.02-306.01c0-13.79,1.08-15.45,14.18-16.68c23.77-2.23,47.58-4.17,71.4-5.69
			c15-0.96,15.08-0.5,15.08,14.58c0.01,89.61,0,179.21,0.01,268.82c0,16.7,0.02,16.73,15.16,8.85
			c21.7-11.31,43.22-22.98,65.14-33.85c7.41-3.68,9.72-8.37,9.71-16.45c-0.15-105.95,0.02-211.9,0.14-317.85
			c0.03-25.03,5.31-29.98,29.94-28.35C872.71,360.07,873.53,359.91,875.56,359.77z M487.15,651.45c0-74.94-0.05-149.87,0.09-224.81
			c0.01-6.68-1.15-10.45-9.14-10.45c-53.13-0.02-106.23-1.75-159.34-3.12c-45.8-1.19-91.63-1.56-137.44-2.32
			c-4.21-0.07-8.43-0.3-12.63-0.64c-12.84-1.06-13.31-0.69-13.32,12.41c-0.01,92.4,0.12,184.81-0.21,277.21
			c-0.03,9.23,3.14,13.98,11.21,18.17c103.86,53.85,207.54,108.04,311.26,162.16c9.39,4.9,9.51,4.88,9.52-5.47
			C487.16,800.2,487.16,725.83,487.15,651.45z"/>
		<path class="st0" d="M427.44,604.24c0,27.05,0.05,54.1-0.02,81.15c-0.03,13.03-3.05,15.29-15.18,11.27
			c-29.62-9.82-59.12-19.99-88.83-29.52c-8.06-2.59-11.22-7.1-11.2-15.32c0.15-47.9-0.01-95.8,0.12-143.7
			c0.03-11.83,2.39-13.65,14.21-11.99c28.92,4.08,57.84,8.21,86.74,12.45c12.92,1.89,14.12,3.45,14.14,17.04
			C427.46,551.83,427.44,578.04,427.44,604.24z"/>
		<path class="st0" d="M268.77,566.86c0,22.24,0.09,44.48-0.03,66.72c-0.07,11.72-3.37,13.99-14.59,10.28
			c-19.73-6.52-39.35-13.41-59.19-19.6c-7.94-2.48-11.41-6.79-11.36-15.19c0.21-39.98,0.03-79.95,0.13-119.93
			c0.03-11.58,2.58-13.49,14.43-11.76c19.71,2.88,39.39,6.07,59.16,8.53c8.51,1.06,11.56,5.27,11.5,13.38
			C268.65,521.82,268.76,544.34,268.77,566.86z"/>
	</g>
</g>
</svg>
